<svg width="256" height="257" viewBox="0 0 256 257" fill="none" xmlns="http://www.w3.org/2000/svg">
<g opacity="0.39" clip-path="url(#clip0_3_22415)">
<path d="M256 43.1667V213.833C256 237.3 236.8 256.5 213.333 256.5H42.6667C19.2 256.5 0 237.3 0 213.833V43.1667C0 19.7 19.2 0.5 42.6667 0.5H213.333C236.8 0.5 256 19.7 256 43.1667Z" fill="#E9E9F4"/>
<path d="M256 173.3V213.833C256 237.3 236.8 256.5 213.333 256.5H42.6667C19.2 256.5 0 237.3 0 213.833V173.3C0 166.9 5.33333 161.566 11.7333 161.566H74.6667C81.0667 161.566 86.4 166.9 86.4 173.3V178.633C86.4 185.033 91.7333 190.366 98.1333 190.366H158.933C165.333 190.366 170.667 185.033 170.667 178.633V173.3C170.667 166.9 176 161.566 182.4 161.566H245.333C250.667 161.566 256 166.9 256 173.3Z" fill="#D5D5E2"/>
<path d="M155.729 94.3649L143.996 82.6316L155.729 70.8982C159.996 66.6316 159.996 59.1649 155.729 54.8982C151.463 50.6316 143.996 50.6316 139.729 54.8982L127.996 67.6982L116.262 55.9649C111.996 51.6982 104.529 51.6982 100.263 55.9649C95.9958 60.2316 95.9958 67.6982 100.263 71.9649L111.996 83.6982L100.263 94.3649C95.9958 98.6316 95.9958 106.098 100.263 110.365C104.529 114.632 111.996 114.632 116.262 110.365L127.996 99.6982L139.729 111.432C143.996 115.698 151.463 115.698 155.729 111.432C159.996 106.098 159.996 98.6316 155.729 94.3649Z" fill="#BEBECE"/>
</g>
<defs>
<clipPath id="clip0_3_22415">
<rect width="256" height="256" fill="white" transform="translate(0 0.5)"/>
</clipPath>
</defs>
</svg>
